# xmcd CD database file
# Copyright (C) 1996 Ti Kan
#
# Track frame offsets:
#  150
#  21822
#  44947
#  64232
#  75292
#  90262
#  102747
#  115537
#  130660
#  147165
#  162565
#
# Disc length: 2349 seconds
#
# Revision: 1
# Processed by: cddbd v1.4b41PL1 Copyright (c) Steve Scherf et al.
# Submitted via: CDWizzard Release:4.15
#
DISCID=8e092b0b
DTITLE=The Meters - Good Old Funky Music
DYEAR=1900
DGENRE=
TTITLE0=Good old funky music
TTITLE1=Rock 'n Roll medley
TTITLE2=Riddle song
TTITLE3=He bite me
TTITLE4=Pickin' and a grinnin'
TTITLE5=Jambalaya
TTITLE6=What more can I do
TTITLE7=I'm gonna put some hurt on you
TTITLE8=Heartache
TTITLE9=Keep on marching
TTITLE10=Voodoo
EXTD=recorded between 1968 and 1974\nArt Neville:    keys/vox\nLeo Nocent
EXTD=elli:    guitar\nGeorge Porter Jr.:    bass\nZibaboo Modeliste:   dr
EXTD=ums\nCyrille Neville:   percussion
EXTT0=
EXTT1=
EXTT2=
EXTT3=
EXTT4=
EXTT5=
EXTT6=
EXTT7=
EXTT8=
EXTT9=
EXTT10=
PLAYORDER=
